<?xml version="1.0" encoding="UTF-8" standalone="no"?>
<svg width="180px" height="180px" viewBox="0 0 180 180" version="1.1" xmlns="http://www.w3.org/2000/svg" xmlns:xlink="http://www.w3.org/1999/xlink">
    <!-- Generator: Sketch 43.1 (39012) - http://www.bohemiancoding.com/sketch -->
    <title>dial</title>
    <desc>Created with Sketch.</desc>
    <defs></defs>
    <g id="Page-1" stroke="none" stroke-width="1" fill="none" fill-rule="evenodd">
        <g id="dial" fill="">
            <path d="M90,148 C122.032515,148 148,122.032515 148,90 C148,82.3587183 149.716745,64.590332 143.837129,68.3817134 C133.476562,75.0625672 131.476935,62.5648035 136.847823,55.7984803 C143.837129,46.9932488 139.441406,46.9932488 131.801652,52.4084132 C124.161897,57.8235776 127.737847,52.5680826 128.916207,46.9932488 C130.41957,39.8808183 117.06432,42.0868493 113.497211,36.9569617 C101.998047,20.4199219 95.9627176,26.0909157 90,32 C84.9980469,36.9569617 80.4980469,43.3710873 75.4980469,40.1640245 C70.4980469,36.9569617 60.3114589,23.9199219 60.3114589,40.1640245 C60.3114589,59.9116979 32,68.8172759 32,90 C32,122.032515 57.9674845,148 90,148 Z" id="Oval"></path>
        </g>
    </g>
</svg>